<?xml version="1.0" encoding="utf-8"?>
<!-- Generator: Adobe Illustrator 23.1.0, SVG Export Plug-In . SVG Version: 6.00 Build 0)  -->
<svg version="1.2" baseProfile="tiny" id="Слой_1"
	 xmlns="http://www.w3.org/2000/svg" xmlns:xlink="http://www.w3.org/1999/xlink" x="0px" y="0px" viewBox="0 0 512 512"
	 xml:space="preserve">
<path d="M256.5,164c22.77,0,45.39,4.4,67.25,13.07c17.58,6.98,34.73,16.73,50.96,28.98c21.02,15.87,35.09,31.93,40.79,38.92
	c-5.38,8.45-19.54,29.13-41.04,49.71c-16.26,15.56-33.42,27.94-51,36.79C301.67,342.44,279.14,348,256.5,348
	c-22.56,0-44.91-5.52-66.41-16.41c-17.38-8.8-34.28-21.11-50.22-36.59c-21.29-20.67-35.22-41.61-40.44-50.04
	c5.49-6.95,19.21-23.05,39.92-38.95c15.93-12.24,32.84-21.98,50.24-28.95C211.23,168.39,233.74,164,256.5,164 M256.5,157
	C152.39,157,91,244.5,91,244.5S152.39,355,256.5,355S424,244.5,424,244.5S360.61,157,256.5,157L256.5,157z"/>
<path d="M256,185c39.15,0,71,31.85,71,71s-31.85,71-71,71s-71-31.85-71-71S216.85,185,256,185 M256,178c-43.08,0-78,34.92-78,78
	s34.92,78,78,78s78-34.92,78-78S299.08,178,256,178L256,178z"/>
</svg>
