<svg xmlns="http://www.w3.org/2000/svg" viewBox="0 0 909.48 927.42"><defs><style>.a{fill:#593f3e;}.b{fill:#ce6795;}.c{fill:#fadbce;}.d{fill:#e5e5e5;}.e{fill:#723042;}.f{fill:#c65879;}.g{fill:#e6a8b9;}.h{fill:#2e2220;}.i{fill:#723140;}.j{fill:#c55475;}.k{fill:#e7a7b8;}.l{fill:#312223;}.m,.s,.w,.x{fill:#fff;}.m,.v{opacity:0.3;}.n,.o,.p,.q,.r{fill:none;stroke-miterlimit:10;}.n,.o,.p{stroke:#000;}.n,.o,.p,.q{stroke-linecap:round;}.n{stroke-width:4px;}.p,.q{stroke-width:2px;}.q{stroke:#ff7bac;opacity:0.5;}.r{stroke:#fff;stroke-width:3px;opacity:0.7;}.s{opacity:0.65;}.t,.u{fill:#020202;}.t{opacity:0.2;}.u{opacity:0.4;}.w,.y{opacity:0.8;}</style></defs><title>Hitori_v7</title><path class="a" d="M903,558.34a755.88,755.88,0,0,1-11.14,108.33h0c-3,16.6-6.28,31.86-9.74,45.72a472.15,472.15,0,0,1-18.45,57.73h0a482.07,482.07,0,0,1-29.08,61.18c-16.24,28.8-39.36,76.37-26.92,94.95h0c6.78,10.12,24.11,11.63,58.86-3.18,0,0-17,23.81-39.6,34.23-24.8,11.42-56.38,6.79-79.9-62.73,0,0-4.34,50.44,30,67a.77.77,0,0,1-.51,1.45c-16.07-4.16-49.38-18.94-52.38-70.13a124.86,124.86,0,0,1,4.14-39.28c5.56-21,18.6-62.89,38.15-89.68,35.74-19.1,45.37-36.94,45.37-36.94s27.81-34.46,8.15-87c-10-26.86-9.78-71.6-9.2-89.53q.27-8.7-.21-17.4l-2.59-45.68S790.29,460,764.54,423.75h0c-29.36-41.3-69.34-94.05-106-130.74a311.94,311.94,0,0,1-.46,43.87c-4.6,56.95-26.36,132.8-96.55,203.45a.22.22,0,0,1-.33-.28c7.77-10.37,36.17-50.67,54.47-108.77,0,0-37.72,66-73.79,88.37a.69.69,0,0,1-.88-1c11.56-13.1,49-65.43,48.74-192.93-.19,1.29-6.68,43.26-56.51,95.18C498.81,456.66,443.82,497.19,356,532.37a.91.91,0,0,1-1-1.52c14.4-12.77,63.2-57.62,70.31-85.58-21.56,25-48.33,51-81.55,76.81C337,604,349,697.64,349,697.64c3.94,32.88,14.27,54.6,23.81,68.22a62.67,62.67,0,0,0,17.44,16.73l.06,0c.65.42,1.3.82,2,1.2l.12.08c7.62,4.94,35.06,24.79,74,76.51,45.69,60.68,2.28,98.42,1.38,99.19,12.74-35.77-7-59.49-7.44-60.05,13.88,26.61-1.77,56-1.77,56-34.36,57.07-92.64,28.55-93.56,28.1.9.11,49.4,6.1,60.71-34a64.51,64.51,0,0,0,2.28-15c2-48-73-57-73-57s-106-28-124-140c-6-37.54-11.62-70.24-15.39-104.18a49,49,0,0,1-10.28,7c-12.57,6.16-28.17,5.16-67.63,3.63-41-1.59-71.24,25.47-81.18,35.72a2,2,0,0,1-3.39-1.56C55.07,654.61,74.05,612.7,99,589.6c27-25,67-78,67-78l2.88-120.66c1.6-67.16,23.53-132.47,63.83-186.22C330.94,73.72,489.5,69.1,489.5,69.1s319-36,389,258q6.13,25.74,10.57,50.38l0,.13c4.41,24.3,7.67,47.77,9.95,70.35a.45.45,0,0,0,0,.08A836.06,836.06,0,0,1,903,558.34Z" transform="translate(-51.12 -66.11)"/><path class="a" d="M950.83,625.62c-22.31,185.48-8.17,280.57-8.17,280.57s-17.81-13.87-19.37-32.26c-4.24,17.55-10.82,39.14-19.53,51,0,0-2.57-5-5.76-12.25-54.75-8.93-34.2-140.4-34-141.82h0a473.32,473.32,0,0,0,18.45-57.73c10-40.17,18.91-92.08,20.88-154.06,0,0,22-10.74,21-41.74-.86-26.64-12.63-43.84-15.93-48.15,3,3.56,6.94,6.15,11.93,6.15,16,0,21-54,21-54s.78-5.33,1.27-13C942.66,408.32,973.13,440.14,950.83,625.62Z" transform="translate(-51.12 -66.11)"/><path class="b" d="M903,558.75a836.06,836.06,0,0,0-3.91-110.3c.2,1,2.42,11.82,8.16,19.33h0l0,0a12.14,12.14,0,0,0,.77,1l0,.05c3.3,4.31,15.07,21.51,15.93,48.15C925,548,903,558.75,903,558.75Z" transform="translate(-51.12 -66.11)"/><path class="b" d="M893.76,371.2c-2.63,3.43-4.32,6.09-4.69,6.68q-4.47-24.63-10.57-50.38a384.87,384.87,0,0,0-20-61.46S861,239,880,249C898.33,258.65,933.6,309.28,893.76,371.2Z" transform="translate(-51.12 -66.11)"/><path class="b" d="M942.27,408c-.49,7.71-1.27,13-1.27,13s-5,54-21,54c-5,0-8.9-2.59-11.93-6.15l0-.05c-.39-.53-.67-.85-.77-1l0,0h0c-5.74-7.51-8-18.32-8.16-19.33a.45.45,0,0,1,0-.08c-2.29-22.62-5.55-46.14-10-70.49.37-.59,2.06-3.25,4.69-6.68,7.51-9.79,22.64-25.79,36.24-17.2C943.08,362.26,943.36,390.91,942.27,408Z" transform="translate(-51.12 -66.11)"/><path class="c" d="M811.72,729s-9.63,17.83-45.37,36.94c-26.46,14.14-67.21,29-129,37.8-111.29,15.9-196.22-2.11-229.8-11.39a63.1,63.1,0,0,1-15.21-6.43l-.12-.08c-1.1-.71-1.77-1.1-2-1.2l-.06,0a62.4,62.4,0,0,1-17.44-16.73c-9.54-13.62-19.87-35.34-23.81-68.21,0,0-12-93.62-5.14-175.57,33.21-25.83,60-51.8,81.53-76.78-7.12,28-55.9,72.79-70.3,85.55a.91.91,0,0,0,.95,1.53c215-86.17,233.34-204.52,233.66-206.7C590,455.19,552.52,507.52,541,520.62a.69.69,0,0,0,.88,1c36.06-22.35,73.79-88.38,73.79-88.38-18.3,58.11-46.7,98.41-54.47,108.78a.22.22,0,0,0,.33.28c90.38-91,100.46-190.55,97-247.32,68.87,68.87,149.37,194.36,149.37,194.36l2.59,45.68q.49,8.7.21,17.41c-.58,17.93-.84,62.67,9.2,89.52C839.52,694.54,811.72,729,811.72,729Z" transform="translate(-51.12 -66.11)"/><path class="d" d="M732.22,612.22c-75.85,15.86-61.2-75.69-61.2-75.69,12.46-21,69.87-108.25,113.67-17.84C787,524.58,809.2,596.13,732.22,612.22Z" transform="translate(-51.12 -66.11)"/><path class="d" d="M464.82,633.72c-86.48,5-80.46-80.5-80.46-80.5C395.64,541,477,458.15,530.88,538.55v0C531.87,540.71,554.47,628.48,464.82,633.72Z" transform="translate(-51.12 -66.11)"/><path class="e" d="M510.83,564.27c1.27,6.37-2.65,12.74-3.73,18.78-1.11,6.25.28,13.58-3,18.91-3.62,5.92-11.3,8.41-17.07,12.44-5.57,3.89-10.48,10.32-17.57,11.73s-14.11-2.65-20.75-4.12c-6.88-1.53-14.94-.91-20.56-5-5-3.68-6.53-11-9.94-16.32-3.29-5.16-9.35-9.54-10.61-15.9-1.43-7.19,2.65-14.27,4.17-21,1.58-7,1.06-15.1,5.26-20.74,3.68-4.93,10.93-6.32,16.22-9.66,5.11-3.23,9.43-9.24,15.7-10.49,6.73-1.33,13.42,2.65,19.75,3.92,6.57,1.31,14.27.29,19.75,3.95s7.47,11.17,11.2,16.74C503.26,552.89,509.5,557.54,510.83,564.27Z" transform="translate(-51.12 -66.11)"/><path class="f" d="M506.48,591.68h0c-.17,3.69-.54,7.29-2.36,10.27-3.62,5.92-11.3,8.41-17.07,12.45-5.57,3.88-10.48,10.31-17.57,11.72s-14.11-2.65-20.75-4.12c-6.88-1.53-14.94-.91-20.56-5-5-3.68-6.53-11-9.94-16.32.35-26.42,19.86-26.15,19.86-26.15s1.64,23.06,17,22.75l13.53,1.62s23.33-5.07,20.08-23.2C488.69,575.7,502,576.17,506.48,591.68Z" transform="translate(-51.12 -66.11)"/><path class="g" d="M488.69,613.32h0c-.56.34-1.11.7-1.64,1.07-5.57,3.89-10.48,10.32-17.57,11.73s-14.11-2.65-20.75-4.13c-3.79-.84-7.94-1-11.84-1.71,0,0,1.72-9.77,10.2-14.73s8.74-13,12.78-13,8.87,8.22,12.52,8.61S487.11,606,488.69,613.32Z" transform="translate(-51.12 -66.11)"/><path class="h" d="M474.76,584.7c-3.23,3.19-10.44.53-14.64.51s-10.55,3.46-13.75.23,1.74-9.16,1.76-13.37-4.27-9.54-1-12.73,9-1,13.16-1,10.56-3.47,13.75-.24,1.08,9.53,1.06,13.74S478,581.5,474.76,584.7Z" transform="translate(-51.12 -66.11)"/><path class="i" d="M784.49,552.54c0,6.5-4.91,12-7.07,17.69-2.23,5.92-2.29,13.38-6.38,18-4.54,5.11-12.28,6-18.5,8.88-6,2.73-11.86,8.08-18.84,8.08s-12.85-5.35-18.86-8.09c-6.23-2.84-14-3.8-18.52-8.92-4.08-4.58-4.12-12-6.35-17.94-2.14-5.7-7.05-11.18-7.05-17.67,0-7.32,5.2-13.47,7.9-19.76,2.8-6.51,3.83-14.6,8.88-19.32,4.41-4.12,11.53-4.06,17.17-6.31,5.44-2.17,10.66-7.22,16.83-7.22,6.63,0,12.2,5.21,18,7.69,6,2.56,13.45,3.06,18,7.72s5,12.41,7.46,18.59C779.45,539.9,784.49,545.68,784.49,552.54Z" transform="translate(-51.12 -66.11)"/><path class="j" d="M778,569q-.3.64-.54,1.29c-2.23,5.91-2.29,13.37-6.37,18-4.55,5.11-12.29,6.06-18.51,8.88-6,2.73-11.86,8.08-18.84,8.08s-12.85-5.35-18.86-8.09c-6.23-2.84-14-3.8-18.52-8.91-3.8-4.29-4.1-11.08-5.94-16.77,1.32-3.69,6.56-17,13.63-18.32,0,0-.44,21.87,17.12,22.11,0,0,10.08.68,11.64.58l13.8,3.92s25.14-5.78,17.9-25C764.53,554.63,772.94,557.15,778,569Z" transform="translate(-51.12 -66.11)"/><path class="k" d="M775.81,576c-1,4.47-1.93,9-4.76,12.23-4.55,5.1-12.28,6-18.5,8.88-6,2.73-11.87,8.08-18.84,8.08s-12.86-5.36-18.87-8.09c-4.66-2.12-10.17-3.2-14.55-5.75,0,0,5.78-13.12,13.7-13.12s14.48.39,18.79-2.44,10.36-.1,13.79,3.91,6.46,13.6,13.69,9.49S773.55,576,775.81,576Z" transform="translate(-51.12 -66.11)"/><path class="l" d="M749.47,558.41c-.93,4.27-6.54,5.67-10,7.86s-7.72,7.87-12,7-4.94-7.68-7.14-11.09-6.73-7-5.8-11.28,6.53-5.67,9.94-7.86,6.29-5.66,10.57-4.73,6.38,5.46,8.57,8.87S750.39,554.13,749.47,558.41Z" transform="translate(-51.12 -66.11)"/><path class="m" d="M884.26,355.29c-13.67-58.38-88.14-299.1-383.21-278.17-235.75,16.72-309,194.24-331.8,303,3.85-62.74,25.49-123.31,63.29-173.72,98.23-131,256.8-135.63,256.8-135.63s319-36,389,258Q881.54,342.17,884.26,355.29Z" transform="translate(-51.12 -66.11)"/><path class="n" d="M766.35,764.33C746.79,791.13,733.76,833,728.19,854a124.89,124.89,0,0,0-4.13,39.28c3,51.19,36.31,66,52.37,70.13a.77.77,0,0,0,.51-1.44C742.65,945.44,747,895,747,895c45,133,119.5,28.5,119.5,28.5-98.55,42-57-47.27-31.94-91.77A478.61,478.61,0,0,0,882.09,712.8c20.77-83.12,36.58-216.59-3.59-385.3-70-294-389-258-389-258S330.93,74.12,232.7,205.13c-40.3,53.75-62.23,119.05-63.83,186.21L166,512s-40,53-67,78c-25,23.11-43.93,65-45.87,88.6a2,2,0,0,0,3.39,1.55c9.94-10.24,40.2-37.3,81.18-35.72,50.47,2,61.9,3,77.91-10.61" transform="translate(-51.12 -66.11)"/><path class="n" d="M858.48,266S861,239,880,249s56.19,64,9.1,129" transform="translate(-51.12 -66.11)"/><path class="n" d="M889,378s22-36,41-24,11,67,11,67-5,54-21,54-21-26.64-21-26.64" transform="translate(-51.12 -66.11)"/><path class="n" d="M903,558.74S925,548,924,517s-16.78-49.22-16.78-49.22" transform="translate(-51.12 -66.11)"/><path class="n" d="M225,370c-26,187-12,256,6,368S355,878,355,878s75,9,73,57c-2.37,57-63,49-63,49s58.93,29.43,93.57-28.09c0,0,15.65-29.34,1.76-55.95,0,0,20.34,23.87,7.43,60.06,0,0,44.81-37.89-1.37-99.19S390.23,783,390.23,783" transform="translate(-51.12 -66.11)"/><path class="n" d="M166,512s29.22-39.74,37.83-95.3" transform="translate(-51.12 -66.11)"/><path class="n" d="M469.52,213.87C378.22,301,353.7,427.78,344.83,512S349,698,349,698c3.95,32.88,14.28,54.6,23.82,68.22a62.86,62.86,0,0,0,34.79,24.48c33.58,9.27,118.5,27.29,229.8,11.39,145.18-20.74,174.33-74.74,174.33-74.74s27.8-34.46,8.15-87c-10-26.85-9.78-71.59-9.21-89.52q.29-8.72-.2-17.41l-2.59-45.68s-80.51-125.5-149.38-194.37" transform="translate(-51.12 -66.11)"/><path class="n" d="M651.48,246.78s46.29,156.77-90,294a.22.22,0,0,1-.33-.29c12.56-16.75,79-111.74,69.58-233.71" transform="translate(-51.12 -66.11)"/><path class="n" d="M615.63,431.68s-37.73,66-73.79,88.38a.69.69,0,0,1-.88-1c11.95-13.56,51.67-69.15,48.56-206.61" transform="translate(-51.12 -66.11)"/><path class="n" d="M589.69,326S573.08,445.8,356,532.78a.91.91,0,0,1-.95-1.53c14.41-12.76,63.21-57.62,70.31-85.58" transform="translate(-51.12 -66.11)"/><path class="n" d="M514.39,265s-7.18,130.43-170.55,257.48" transform="translate(-51.12 -66.11)"/><path class="o" d="M891.83,667.08s12.43,79.49-34.92,164.4c0,0-18,36-36.78,55.95s-12.49,39.26-12.49,39.26" transform="translate(-51.12 -66.11)"/><path class="o" d="M826.9,957.73s18.8,26.49,48.53-24.38" transform="translate(-51.12 -66.11)"/><path class="o" d="M205.33,640.8S183.19,836.07,288,862.39,425.72,950,425.72,950" transform="translate(-51.12 -66.11)"/><path class="n" d="M942.27,408s30.47,31.82,8.16,217.3-8.16,280.57-8.16,280.57S924.46,892,922.89,873.57" transform="translate(-51.12 -66.11)"/><path class="n" d="M928.52,846s-8.82,56.34-25.15,78.65c0,0-20.89-40.57-17.5-58.31" transform="translate(-51.12 -66.11)"/><path class="n" d="M863.64,770.53s-21.08,132.85,34,141.83" transform="translate(-51.12 -66.11)"/><path class="o" d="M658,337.29S675,478.78,595.13,532.85" transform="translate(-51.12 -66.11)"/><path class="n" d="M501.22,752.43s5.08-8.41,20.35-8,21.32-5.67,21.32-5.67,7.44-3.91,18.78,3.33,29.55,1.17,29.55,1.17,19.56-7.44,35.8-2.94,34.63-2.62,34.63-2.62,12.13-7.55,20.74-6,14.68,2.54,17.61-2.16" transform="translate(-51.12 -66.11)"/><path class="n" d="M638.17,650.7c1.54,0,8.17,5.28,6.07,7.23" transform="translate(-51.12 -66.11)"/><path d="M666.8,539.85A163.6,163.6,0,0,1,677,521.4c1.86-3,3.85-5.89,5.9-8.76s4.2-5.68,6.47-8.41a120.37,120.37,0,0,1,14.95-15.36,86.73,86.73,0,0,1,8.77-6.57,62.68,62.68,0,0,1,9.93-5.18,46,46,0,0,1,11.12-3,37.36,37.36,0,0,1,11.79.36,36.88,36.88,0,0,1,11,4,48.36,48.36,0,0,1,9.21,6.69,73.37,73.37,0,0,1,13.38,17.21,110.49,110.49,0,0,1,8.76,19.32,2,2,0,0,1-3.63,1.67h0a198.67,198.67,0,0,0-10.95-17.2,98.91,98.91,0,0,0-6.24-7.76c-.53-.63-1.08-1.23-1.66-1.81l-1.71-1.74c-1.19-1.09-2.36-2.21-3.61-3.19a40.23,40.23,0,0,0-7.77-5.17,32.19,32.19,0,0,0-8.49-2.85,32.86,32.86,0,0,0-17.75,2.19,53.52,53.52,0,0,0-8.5,4.32,76.37,76.37,0,0,0-8,5.63c-2.59,2-5.07,4.27-7.51,6.56s-4.81,4.69-7.1,7.17-4.53,5-6.72,7.63-4.29,5.28-6.39,8c-4.14,5.41-8.17,11-11.9,16.69l0,0a2,2,0,0,1-3.49-1.95Z" transform="translate(-51.12 -66.11)"/><path d="M381.54,553.51c2.34-3.14,4.81-6,7.38-8.92s5.26-5.61,8-8.32,5.63-5.27,8.56-7.79,5.95-5,9.09-7.25,6.35-4.51,9.65-6.61,6.74-4,10.25-5.81a102,102,0,0,1,22.38-8.32,70.39,70.39,0,0,1,24.38-1.58,59.76,59.76,0,0,1,12.1,2.68,62.86,62.86,0,0,1,11.23,5.1,70.37,70.37,0,0,1,18.28,15.63A91.11,91.11,0,0,1,535.4,542a2,2,0,0,1-3.4,2.11v0a146.81,146.81,0,0,0-14.82-16.42,80.77,80.77,0,0,0-8.34-6.78,64.08,64.08,0,0,0-9-5.42,60.9,60.9,0,0,0-9.64-3.76,56.9,56.9,0,0,0-10.1-1.89,61.65,61.65,0,0,0-10.35-.1,66.14,66.14,0,0,0-10.39,1.54c-13.82,3.08-27.06,9.67-39.51,17.52-3.1,2-6.17,4.06-9.21,6.2s-6,4.41-8.94,6.67c-5.87,4.57-11.64,9.43-17.11,14.45l-.05.05a2,2,0,0,1-3-2.68Z" transform="translate(-51.12 -66.11)"/><path d="M479.53,501.28c.43-.19.7-.27,1-.39s.62-.19.92-.28c.61-.2,1.22-.33,1.82-.47s1.2-.26,1.8-.36,1.19-.22,1.79-.27c1.2-.13,2.39-.26,3.58-.28.6,0,1.19-.06,1.79,0l1.77.06a50.59,50.59,0,0,1,13.69,2.6l3.22,1.21c1.08.38,2.08.95,3.12,1.41a59.17,59.17,0,0,1,6,3.26,32.51,32.51,0,0,1,2.81,1.86l2.76,1.93c1.75,1.4,3.45,2.85,5.17,4.26-1.9-1.18-3.76-2.38-5.66-3.52l-2.94-1.54a32.41,32.41,0,0,0-3-1.45,58.46,58.46,0,0,0-6.12-2.36c-1.05-.31-2.05-.73-3.12-1l-3.15-.73a46.35,46.35,0,0,0-12.67-.74l-1.56.16c-.52.05-1,.16-1.54.24-1,.15-2,.4-3,.64-.5.11-1,.28-1.46.43a13.33,13.33,0,0,0-1.43.48c-.46.17-.93.34-1.36.55-.21.1-.45.19-.64.29s-.43.22-.49.27a3.56,3.56,0,0,1-4.49-5.53,3.24,3.24,0,0,1,.81-.49Z" transform="translate(-51.12 -66.11)"/><path d="M447.44,503.78a9.33,9.33,0,0,0,1.3-.37c.47-.15.95-.33,1.43-.52,1-.37,1.92-.79,2.87-1.24a40.59,40.59,0,0,0,5.49-3.22,32.92,32.92,0,0,0,5-4.21,31,31,0,0,0,4.09-5.33,31.59,31.59,0,0,1-2,6.69,36.9,36.9,0,0,1-3.44,6.31,47,47,0,0,1-4.57,5.74c-.85.89-1.73,1.77-2.66,2.62-.46.42-.93.84-1.43,1.25a20.6,20.6,0,0,1-1.65,1.26l-.81.55a5.24,5.24,0,1,1-5.86-8.68A5.34,5.34,0,0,1,447.44,503.78Z" transform="translate(-51.12 -66.11)"/><path d="M744.16,475.41c1.84,0,3.45.11,5.15.25s3.34.35,5,.59a80.86,80.86,0,0,1,9.78,2.05,61.78,61.78,0,0,1,9.3,3.47,43.31,43.31,0,0,1,8.27,5.23,42.6,42.6,0,0,0-8.89-3.6,59.55,59.55,0,0,0-9.34-1.66,76,76,0,0,0-9.42-.25q-2.36.08-4.68.3c-1.53.14-3.14.34-4.52.59h0a3.51,3.51,0,1,1-.62-7Z" transform="translate(-51.12 -66.11)"/><path d="M728.52,478.16a43.4,43.4,0,0,0,4.26-3,41.07,41.07,0,0,0,3.93-3.53,25.39,25.39,0,0,0,3.32-4.12,15.4,15.4,0,0,0,2.1-4.9,15.75,15.75,0,0,1-1.21,5.36,27.68,27.68,0,0,1-2.65,4.91,40.93,40.93,0,0,1-3.42,4.44,44.63,44.63,0,0,1-4,4.07,2,2,0,0,1-2.68-3,1.94,1.94,0,0,1,.29-.21Z" transform="translate(-51.12 -66.11)"/><path d="M655.3,393.77a25.7,25.7,0,0,0,1.81,7.31,11.1,11.1,0,0,0,4.33,5.5,7.23,7.23,0,0,0,6.36.19c.53-.18,1.06-.48,1.58-.71s1-.57,1.53-.9,1-.64,1.48-1l.72-.55.37-.27.19-.14c.14-.09.29-.17.44-.25a5.07,5.07,0,0,1,1.82-.58,6.46,6.46,0,0,1,1.54,0,11,11,0,0,1,2.45.63,19.11,19.11,0,0,1,3.76,2,54.16,54.16,0,0,0,6.5,4.14,45.34,45.34,0,0,0,7,2.62c2.35.73,4.65,1.49,6.94,2.33,8.82,4.58,19.52,4.42,29.76,5.43,5.16.42,10.33.81,15.49,1.38,2.57.29,5.15.61,7.72,1a65.17,65.17,0,0,1,7.63,1.73.49.49,0,0,1,.34.62.51.51,0,0,1-.62.34h0a71.41,71.41,0,0,0-15.18-2.23c-5.14-.32-10.3-.37-15.46-.39s-10.34,0-15.55-.05c-2.58,0-5.28-.13-8-.15A36.1,36.1,0,0,1,702,421a28.88,28.88,0,0,1-7.61-3c-2.38-1.36-4.6-2.93-6.82-4.45s-4.42-3-6.59-4.15c-1.08-.58-2.13-1.16-3.08-1.61a8.33,8.33,0,0,0-1.25-.48c-.2-.07-.28-.05-.39-.09s-.09,0,0-.06,0,0,0-.05l-.22.12-.45.24-.92.48c-.61.32-1.28.58-1.91.86s-1.33.49-2,.73-1.37.39-2.1.5a12.94,12.94,0,0,1-4.4.17,9.11,9.11,0,0,1-4.14-1.66,13.56,13.56,0,0,1-4.51-6.92,31.17,31.17,0,0,1-1.33-7.82.5.5,0,0,1,1-.07Z" transform="translate(-51.12 -66.11)"/><path d="M533.11,419.25a36.31,36.31,0,0,0,4.09-.23c1.39-.14,2.78-.35,4.16-.62a45.17,45.17,0,0,0,8.1-2.35,33.83,33.83,0,0,0,7.42-4.09,29,29,0,0,0,6-6.09,29.68,29.68,0,0,1-5.39,6.86,35.72,35.72,0,0,1-7.21,5.13,48.16,48.16,0,0,1-8.21,3.45c-1.42.45-2.87.84-4.33,1.16a38.86,38.86,0,0,1-4.51.78,2,2,0,1,1-.44-4h.29Z" transform="translate(-51.12 -66.11)"/><path class="p" d="M570.22,384.74s3.13,14.87-3.92,27.65" transform="translate(-51.12 -66.11)"/><line class="q" x1="334.92" y1="590.2" x2="360.75" y2="623.59"/><line class="q" x1="355.27" y1="588.21" x2="374.6" y2="626.98"/><line class="q" x1="369.1" y1="585.76" x2="405.88" y2="618.89"/><line class="q" x1="381.62" y1="584.59" x2="421.27" y2="613.15"/><line class="q" x1="408.75" y1="578.2" x2="429.36" y2="613.15"/><path class="q" d="M472.39,647.7c0,.78,14.88,19,14.88,19" transform="translate(-51.12 -66.11)"/><line class="q" x1="674.05" y1="567.11" x2="683.97" y2="588.89"/><line class="q" x1="683.97" y1="565.41" x2="698.18" y2="592.41"/><line class="q" x1="697.53" y1="560.46" x2="715.27" y2="590.2"/><line class="q" x1="711.23" y1="554.46" x2="721.27" y2="585.63"/><line class="q" x1="718.27" y1="551.98" x2="738.23" y2="581.59"/><line class="q" x1="734.84" y1="549.89" x2="758.05" y2="566.07"/><path class="n" d="M716,230.83S851.19,329,821.18,644.11" transform="translate(-51.12 -66.11)"/><path class="n" d="M807.87,487.78s13.89,17.48,16.73,29.74" transform="translate(-51.12 -66.11)"/><path class="o" d="M671,536.52s-14.65,91.55,61.2,75.7c77-16.09,54.83-87.64,52.47-93.54" transform="translate(-51.12 -66.11)"/><path class="o" d="M384.36,553.37s-6,85.55,80.47,80.5c89.89-5.25,66.92-93.49,66.05-95.17" transform="translate(-51.12 -66.11)"/><path d="M786.59,552.54a17.32,17.32,0,0,1-1.1,5.53,33,33,0,0,1-2.25,4.79c-1.66,3-3.48,5.71-4.55,8.61S777,577.69,776,581a26.07,26.07,0,0,1-1.94,4.86,14.31,14.31,0,0,1-3.35,4.19,26.14,26.14,0,0,1-9.19,4.63,87.56,87.56,0,0,0-9.36,3.28c-3,1.41-5.74,3.26-8.72,4.82a20.92,20.92,0,0,1-9.7,2.91,21.19,21.19,0,0,1-9.74-2.84c-3-1.55-5.78-3.4-8.73-4.81a79.12,79.12,0,0,0-9.33-3.32,26.17,26.17,0,0,1-9.15-4.71,14.34,14.34,0,0,1-3.31-4.19,26.59,26.59,0,0,1-1.9-4.86c-1-3.27-1.59-6.56-2.69-9.52s-2.9-5.64-4.56-8.63a34.16,34.16,0,0,1-2.24-4.76,16.91,16.91,0,0,1-1.09-5.49A24.16,24.16,0,0,1,683.52,542c1.44-3.18,3.16-6.07,4.44-8.94a73.73,73.73,0,0,0,3.07-9.15,35,35,0,0,1,4.3-9.94,17,17,0,0,1,1.89-2.3,14.74,14.74,0,0,1,2.37-2,20.86,20.86,0,0,1,5.27-2.5c3.49-1.15,6.79-1.71,9.57-2.69a20.93,20.93,0,0,0,4-1.83c1.35-.77,2.75-1.65,4.25-2.54a35.27,35.27,0,0,1,5-2.47,17.31,17.31,0,0,1,6.1-1.26,17.9,17.9,0,0,1,6.06,1.06,33.63,33.63,0,0,1,5.09,2.33c3.11,1.69,5.79,3.57,8.4,4.67s5.84,1.95,9.19,3.09a31,31,0,0,1,5.12,2.24,17.59,17.59,0,0,1,4.72,3.82,18.9,18.9,0,0,1,3.06,5.07A41,41,0,0,1,777,523.8a96.41,96.41,0,0,0,2.54,9.38c1.07,2.81,2.77,5.67,4.27,8.8A23.48,23.48,0,0,1,786.59,552.54Zm-4.2,0a19.32,19.32,0,0,0-2.74-8.44c-1.51-2.82-3.4-5.61-4.88-9a101.1,101.1,0,0,1-3.27-9.72c-1-3-2.17-5.81-3.93-7.61s-4.26-2.92-7.24-3.83-6.33-1.58-9.82-3a87.85,87.85,0,0,1-9.12-4.91,16.81,16.81,0,0,0-7.69-2.58c-2.28-.05-4.88,1.06-7.64,2.62-1.39.77-2.83,1.64-4.39,2.49-.78.42-1.61.83-2.47,1.22a24.37,24.37,0,0,1-2.68,1c-3.56,1.1-6.88,1.52-9.75,2.38a15,15,0,0,0-3.8,1.6A8.63,8.63,0,0,0,701.5,516a11.4,11.4,0,0,0-1.33,1.51,30.15,30.15,0,0,0-4,8.17,76.48,76.48,0,0,1-3.79,9.59c-1.61,3.14-3.46,5.9-4.91,8.72a20.17,20.17,0,0,0-2.62,8.59c-.1,2.84,1,5.77,2.44,8.67s3.2,5.86,4.28,9.26,1.48,6.68,2.25,9.84a24.63,24.63,0,0,0,1.51,4.51,12.24,12.24,0,0,0,2.71,3.7,24.39,24.39,0,0,0,8.37,4.63c3.08,1.17,6.31,2.14,9.38,3.65s5.78,3.44,8.67,5,6,2.87,9.2,2.86a19.68,19.68,0,0,0,9.24-2.78c2.89-1.57,5.64-3.48,8.67-5a91.62,91.62,0,0,1,9.36-3.68,24.33,24.33,0,0,0,8.33-4.7c2.27-2.11,3.37-5.1,4.12-8.24s1.17-6.48,2.23-9.85,2.89-6.38,4.3-9.28S782.48,555.34,782.39,552.54Z" transform="translate(-51.12 -66.11)"/><path d="M513.3,563.78a17.35,17.35,0,0,1,0,5.89,33.58,33.58,0,0,1-1.4,5.27c-1.11,3.32-2.46,6.33-3,9.37s-.53,6.51-.95,10a24.54,24.54,0,0,1-1.18,5.29,14.67,14.67,0,0,1-2.83,4.79,29.72,29.72,0,0,1-8.53,6.18,76.69,76.69,0,0,0-8.75,5c-2.71,1.92-5.17,4.28-7.88,6.38a22.81,22.81,0,0,1-9.2,4.66,22.32,22.32,0,0,1-10.28-.83c-3.3-.9-6.47-2.14-9.71-2.94a81,81,0,0,0-10-1.42,29.63,29.63,0,0,1-10.1-2.54,14.29,14.29,0,0,1-4.28-3.3,23.65,23.65,0,0,1-3-4.39c-1.67-3.05-2.94-6.21-4.64-9s-4.05-5-6.34-7.64a33.41,33.41,0,0,1-3.27-4.23,17,17,0,0,1-2.25-5.22,23.79,23.79,0,0,1,.55-11c.87-3.44,2-6.65,2.78-9.74a80.37,80.37,0,0,0,1.29-9.76,33.38,33.38,0,0,1,2.6-10.8l.71-1.35.84-1.3c.33-.42.66-.86,1-1.26s.72-.79,1.11-1.13a24.14,24.14,0,0,1,4.83-3.35c3.25-1.76,6.42-3,9-4.5s4.64-3.65,7.36-6a35.23,35.23,0,0,1,4.53-3.41,18.28,18.28,0,0,1,5.89-2.43,19.7,19.7,0,0,1,6.29-.24,32.31,32.31,0,0,1,5.61,1.19c3.47,1,6.59,2.25,9.38,2.83s6.16.68,9.72,1.12a37.39,37.39,0,0,1,5.59,1.05,17.77,17.77,0,0,1,10.11,7,35.18,35.18,0,0,1,2.86,4.84c1.6,3.19,2.85,6.27,4.44,8.84s3.87,5,6,7.81a33.11,33.11,0,0,1,3.06,4.6A18.17,18.17,0,0,1,513.3,563.78Zm-4.94,1c-.61-2.69-2.33-5.18-4.43-7.61s-4.59-4.83-6.81-7.93-3.65-6.25-5.28-9-3.37-5.11-5.42-6.37-4.84-1.8-8-2.06a99.2,99.2,0,0,1-10.49-1c-3.86-.78-7.05-2.15-10.08-3s-5.76-1.45-8.13-1-4.66,1.93-7.13,4c-1.25,1-2.52,2.14-3.94,3.27-.7.56-1.45,1.12-2.24,1.67a26.06,26.06,0,0,1-2.5,1.52c-3.36,1.79-6.61,2.86-9.37,4.23a17.59,17.59,0,0,0-3.62,2.25c-.27.2-.47.43-.72.65s-.41.46-.62.69l-.59.8-.53.87a27.86,27.86,0,0,0-2.56,8.77,85.31,85.31,0,0,1-2,10.29c-1,3.45-2.39,6.55-3.35,9.64a19.93,19.93,0,0,0-1.06,9.07c.46,2.85,2.2,5.56,4.24,8.14s4.45,5.16,6.2,8.34,2.78,6.36,4.25,9.31,3.34,5.6,6.19,7.1a27.36,27.36,0,0,0,9.43,2.7,83.33,83.33,0,0,1,10.1,1.66c3.33.9,6.47,2.2,9.68,3.14a20.62,20.62,0,0,0,9.8.85,20.21,20.21,0,0,0,8.7-4.57c2.62-2.09,5-4.5,7.72-6.65a93.75,93.75,0,0,1,8.65-5.51,26.88,26.88,0,0,0,7.5-6.14c1.94-2.45,2.58-5.48,2.74-8.73s-.08-6.66.31-10.27,1.65-7,2.53-10.18S509,567.4,508.36,564.76Z" transform="translate(-51.12 -66.11)"/><path class="r" d="M386,619.78c.5-.61,9.29-17.74,30-7.17s28.95,19.82,13.17,27.65-38.09,4.44-41.35,0S383.12,623.4,386,619.78Z" transform="translate(-51.12 -66.11)"/><ellipse class="s" cx="348.41" cy="559.06" rx="8.66" ry="6.46"/><ellipse class="s" cx="360.31" cy="570.01" rx="4.62" ry="3.13"/><ellipse class="s" cx="346.79" cy="571.56" rx="4.62" ry="3.13"/><path class="r" d="M754.65,597.87s8.55-19.16,26.32-16.43,19.72,2.34,25.66,2.34,14.84,19.57,9.6,23.87-23.43,2-31.74,4.05S752.57,607.91,754.65,597.87Z" transform="translate(-51.12 -66.11)"/><ellipse class="s" cx="744.49" cy="526.16" rx="6.26" ry="4.38"/><ellipse class="s" cx="741.85" cy="537.01" rx="4.6" ry="3.1"/><ellipse class="s" cx="726.85" cy="527.03" rx="7.99" ry="5.9"/><path class="t" d="M655.39,444.48s.39-12.13,6.39-19.7,41.74-.26,41.48,6-20.16,35.67-39.13,31.83C653.83,460.52,655.39,444.48,655.39,444.48Z" transform="translate(-51.12 -66.11)"/><path class="u" d="M820.89,642.6c-.36-1.07-.74-2.15-1.15-3.24-10-26.86-9.78-71.6-9.2-89.53q.27-8.7-.21-17.4l-2.59-45.68-.32-.51c.79,1,12.67,15.82,16.49,27.45C826,552,825.35,594.78,820.89,642.6Z" transform="translate(-51.12 -66.11)"/><path class="t" d="M798.09,364.47c-26.26-78-63.14-116-76.24-127.67l-1-.87c-4.42-4-22.79-21.46-33.6-44.24a2.71,2.71,0,0,1,4.15-3.28C715.11,207.73,783.66,270.83,798.09,364.47Z" transform="translate(-51.12 -66.11)"/><path class="t" d="M419.89,910.69c-5.92-9.53-15.54-16.51-25.68-21.57,0,0-36.29-50.87-105.83-72.68C288.38,816.44,378.6,814.86,419.89,910.69Z" transform="translate(-51.12 -66.11)"/><path class="t" d="M214.79,633.67c-16,13.65-27.43,12.57-77.91,10.61-33-1.27-59.1,16.06-73.17,28.19.33-.82,14.91-37.15,53.6-56.23,39.14-19.3,60.79-34.7,76.7-86.35,15.41-50,20.87-82.88,21.19-84.88C207.41,525.78,208.94,581.19,214.79,633.67Z" transform="translate(-51.12 -66.11)"/><path class="t" d="M208.39,367.21s-.39,33.58-5.87,56.22l0,.11C192.56,475.05,166,511.16,166,511.16l.7-29.26C171.7,473.68,202.17,421.76,208.39,367.21Z" transform="translate(-51.12 -66.11)"/><path class="t" d="M469.58,213.87c-71.94,68.64-102.42,161.9-116.45,239.56C353.13,453.43,342,255.93,469.58,213.87Z" transform="translate(-51.12 -66.11)"/><path class="t" d="M514.39,265s-4.56,82.77-89,180.67c-21.56,25-48.33,51-81.55,76.81q.44-5.28,1-10.48c1.66-15.74,3.86-33,6.95-51.15,0,0,84.05-72.33,102.08-148.41-.35,2-12,67.3-45.89,114.29C409.16,425.54,485.91,349.12,514.39,265Z" transform="translate(-51.12 -66.11)"/><path class="t" d="M615.62,432.39s-21.2,37.1-47,65.09c46.9-61,57.85-166.82,59.93-193.8a.65.65,0,0,1,1.29,0l1.28,9.4a.11.11,0,0,0,0,.05C633.73,357.42,626.44,398,615.62,432.39Z" transform="translate(-51.12 -66.11)"/><path class="t" d="M775.65,439.48c-28.91-23.65-103.88-113.07-103.88-113.07,0,10.56-15.34,30.8-15.34,30.8a312.93,312.93,0,0,0,2.66-63.43C700.38,335.08,745.86,396.73,775.65,439.48Z" transform="translate(-51.12 -66.11)"/><path class="t" d="M746.23,894.93s-4.34,50.45,29.95,67a.77.77,0,0,1-.51,1.44c-16.07-4.16-49.38-18.93-52.38-70.12A124.83,124.83,0,0,1,727.43,854c5.56-21,18.6-62.89,38.15-89.68,19.44-10.39,31.15-20.4,37.8-27.38-.57.71-5.29,7.23-33.06,57.87-29.67,54.1-16.58,93.75-16.18,94.93C750.3,869.1,767.48,824,768,822.7c-.47,2.33-26.27,131.37,69.12,128.69C811.29,969,773.39,975.2,746.23,894.93Z" transform="translate(-51.12 -66.11)"/><path class="t" d="M885.69,873.9c1.24,12.39,7.92,29.06,12.7,39.72-54.75-8.93-35-142.17-34.76-143.61h0a472.1,472.1,0,0,0,18.44-57.73c10-40.17,18.92-92.08,20.88-154.06h0a36.74,36.74,0,0,0,10.53-8.83s1.06,85.32-15.9,191.07C881,843.73,885.47,872.56,885.68,873.85A.07.07,0,0,1,885.69,873.9Z" transform="translate(-51.12 -66.11)"/><path class="t" d="M367.59,758.89C269.38,632.47,304,470.47,304,470.47s-4.3,153.36,33.66,204.7c0,0,4-20.23,6.12-40.42,2.14,37.73,5.6,64.76,5.6,64.76C352.53,726,359.86,745.28,367.59,758.89Z" transform="translate(-51.12 -66.11)"/><path class="t" d="M561.62,467.28c-13.5,11.83-46.54-15.42-46.54-15.42S454.75,493.59,415.75,504c52.4-26.63,89.39-54.82,115.47-80.8,18.76-5.49,23.95,2.23,23.95,2.23S575.12,455.47,561.62,467.28Z" transform="translate(-51.12 -66.11)"/><path class="t" d="M533.69,573.4c-63-117.56-148.29-2-148.29-2a94.16,94.16,0,0,1-1-18.4c11.28-12.18,92.6-95.07,146.52-14.67C531.24,539,535.47,554.83,533.69,573.4Z" transform="translate(-51.12 -66.11)"/><path class="t" d="M789.35,543.05c-60.48-106.53-113.89,7.78-119.07,19.43a124.71,124.71,0,0,1,.74-27c12.45-20.95,69.86-108.26,113.67-17.85A88.64,88.64,0,0,1,789.35,543.05Z" transform="translate(-51.12 -66.11)"/><path class="t" d="M662.37,650.58c-.8,8.57-10.4,9.26-22,4.42-10.5-4.39-19.69-5.62-18.57-11.79s11.1-9.51,22.3-7.48S663,644.34,662.37,650.58Z" transform="translate(-51.12 -66.11)"/><g class="v"><ellipse class="w" cx="812.82" cy="268.16" rx="8.85" ry="28.52" transform="translate(-86.45 317.11) rotate(-25.98)"/><ellipse class="x" cx="797.94" cy="277.75" rx="4.49" ry="14.47" transform="translate(-92.15 311.55) rotate(-25.98)"/><ellipse class="x" cx="292.04" cy="313.61" rx="35.05" ry="8.09" transform="translate(-155.51 410.23) rotate(-69.36)"/><ellipse class="x" cx="310.32" cy="320.5" rx="20.58" ry="4.75" transform="translate(-150.12 431.8) rotate(-69.36)"/><ellipse class="x" cx="224.44" cy="269.29" rx="19.51" ry="8.09" transform="translate(-166.76 288.26) rotate(-64.24)"/><ellipse class="w" cx="531.16" cy="337.29" rx="21.03" ry="8.09" transform="translate(-22.85 649.33) rotate(-69.36)"/><ellipse class="w" cx="557.01" cy="342.83" rx="8.44" ry="3.25" transform="translate(-69.52 587.7) rotate(-60)"/><g class="y"><path class="x" d="M899.71,361c14.33-69.87-11.24-94.67-24-101.72s-16.32,8.91-16.32,8.91c-.29-.71-.59-1.42-.89-2.12,0,0,2.52-27.05,21.52-17.05C897.31,258.11,929.73,303.78,899.71,361Z" transform="translate(-51.12 -66.11)"/><path class="x" d="M942.27,408c-.49,7.71-1.27,13-1.27,13s-5,54-21,54a13.49,13.49,0,0,1-4.17-.65c20.58-26.47,16.73-84.13,7.06-102.13s-33.07,9.86-33.07,9.86c-.24-1.35-.48-2.71-.73-4.07,1.62-2.24,3.15-4.47,4.57-6.68l0-.05c7.49-9.79,22.67-25.89,36.3-17.28C943.08,362.26,943.36,390.91,942.27,408Z" transform="translate(-51.12 -66.11)"/></g><ellipse class="x" cx="383.15" cy="522.53" rx="6.72" ry="6.33"/><ellipse class="x" cx="439.69" cy="518.3" rx="4.89" ry="5.87"/><circle class="x" cx="652.42" cy="504.19" r="3.93"/><ellipse class="x" cx="708.94" cy="504.11" rx="4.37" ry="4.96"/><circle class="x" cx="695.51" cy="442.88" r="9.06"/><circle class="x" cx="677.26" cy="440.82" r="4.28"/><circle class="x" cx="430.34" cy="462.28" r="8.22"/><ellipse class="x" cx="413.22" cy="461.13" rx="2.84" ry="3.52"/></g></svg>