<svg version="1.2" baseProfile="tiny" class="eye" id="eye"
	 xmlns="http://www.w3.org/2000/svg" xmlns:xlink="http://www.w3.org/1999/xlink" x="0px" y="0px" viewBox="0 0 512 512"
	 xml:space="preserve">
<path fill="none" stroke-width="7" stroke-linecap="round" stroke-miterlimit="10" d="M85.5,244.5
	c0,0,48,106,175,102s167-102,167-102"/>
<path class="eyeEl1" d="M257,183c39.15,0,71,27.81,71,62s-31.85,62-71,62s-71-27.81-71-62S217.85,183,257,183 M257,176c-43.08,0-78,30.89-78,69
	s34.92,69,78,69s78-30.89,78-69S300.08,176,257,176L257,176z"/>
<g class="eyeEl2">
		<line stroke-width="7" stroke-linecap="round" stroke-miterlimit="10" x1="156.13" y1="320.31" x2="141.5" y2="346.5"/>

		<line stroke-width="7" stroke-linecap="round" stroke-miterlimit="10" x1="260.5" y1="346.5" x2="260.5" y2="368.5"/>

		<line stroke-width="7" stroke-linecap="round" stroke-miterlimit="10" x1="373.53" y1="309.32" x2="390.5" y2="333.5"/>
	<path fill="none" stroke-width="7" stroke-linecap="round" stroke-miterlimit="10" d="M85.5,244.5
		c0,0,48,106,175,102s167-102,167-102"/>
</g>
</svg>
