<svg version="1.2" baseProfile="tiny" class="folder__icon"
	 xmlns="http://www.w3.org/2000/svg" xmlns:xlink="http://www.w3.org/1999/xlink" x="0px" y="0px" viewBox="0 0 512 512"
	 xml:space="preserve">

<path fill="none" stroke-width="18" stroke-miterlimit="10" d="M367.72,386.5H111.97c-4.4,0-7.7-4-6.88-8.32
	l34.33-179.99c0.63-3.3,3.52-5.69,6.88-5.69h256.22c4.4,0,7.71,4.01,6.88,8.33L374.6,380.82
	C373.96,384.12,371.08,386.5,367.72,386.5z"/>
<path fill="none" stroke-width="18" stroke-miterlimit="10" d="M105.01,380.27V136.3c0-4.9,3.97-8.86,8.86-8.86
	h74.03c2.82,0,5.47,1.34,7.14,3.62l13.08,17.81c1.67,2.27,4.32,3.62,7.14,3.62h162.34c4.9,0,8.86,3.97,8.86,8.86v31.16"/>

<g id="folderIconPlus">

		<line fill="none" stroke-width="14" stroke-linecap="round" stroke-miterlimit="10" x1="206.37" y1="290.28" x2="308.11" y2="290.28"/>

		<line fill="none" stroke-width="14" stroke-linecap="round" stroke-miterlimit="10" x1="257.24" y1="241.76" x2="257.24" y2="337.24"/>
</g>

</svg>
