<svg version="1.2" baseProfile="tiny" id="share" class="share__icon"
	 xmlns="http://www.w3.org/2000/svg" xmlns:xlink="http://www.w3.org/1999/xlink" x="0px" y="0px" viewBox="0 0 512 512"
	 xml:space="preserve">
<path fill="none" stroke-width="12" stroke-linecap="round" stroke-miterlimit="10" d="M150.61,263.21
	l172.23,99.44l0,0c17.71-21.19,48.61-27.24,73.35-12.95c27.7,15.99,37.19,51.41,21.2,79.11c-15.99,27.7-51.41,37.19-79.11,21.2
	c-24.74-14.28-34.95-44.07-25.46-70l0,0l-172.26-99.45l-0.08-0.04c-17.71,21.19-48.51,27.3-73.25,13.01
	c-27.7-15.99-37.19-51.41-21.2-79.11s51.41-37.19,79.11-21.2c6.21,3.58,11.5,8.14,15.79,13.37l171.88-99.23l0,0
	c-9.5-25.94,0.72-55.72,25.46-70c27.7-15.99,63.12-6.5,79.11,21.2c15.99,27.7,6.5,63.12-21.2,79.11
	c-24.74,14.28-55.59,8.31-73.31-12.88l-0.05-0.07l-172.05,99.34C155.19,236.45,150.61,263.21,150.61,263.21z"/>
<path fill="none" stroke-width="12" stroke-linecap="round" stroke-miterlimit="10" d="M122.49,266.7
	c-6.49,7.58-16.14,12.38-26.9,12.38c-19.56,0-35.41-15.85-35.41-35.41s15.85-35.41,35.41-35.41c10.31,0,19.6,4.41,26.07,11.44"/>
</svg>
